HIERARCHY
ROOT Hips
{
	OFFSET 0.000000 0.000000 0.000000
	CHANNELS 6 Xposition Yposition Zposition Zrotation Yrotation Xrotation 
	JOINT LHipJoint
	{
		OFFSET 0.000000 0.000000 0.000000
		CHANNELS 3 Zrotation Yrotation Xrotation
		JOINT LeftUpLeg
		{
			OFFSET 1.363060 -1.794630 0.839290
			CHANNELS 3 Zrotation Yrotation Xrotation
			JOINT LeftLeg
			{
				OFFSET 2.448110 -6.726130 0.000000
				CHANNELS 3 Zrotation Yrotation Xrotation
				JOINT LeftFoot
				{
					OFFSET 2.562200 -7.039590 0.000000
					CHANNELS 3 Zrotation Yrotation Xrotation
					JOINT LeftToeBase
					{
						OFFSET 0.157640 -0.433110 2.322550
						CHANNELS 3 Zrotation Yrotation Xrotation
						End Site
						{
							OFFSET 0.000000 0.000000 0.000000
						}
					}
				}
			}
		}
	}
	JOINT RHipJoint
	{
		OFFSET 0.000000 0.000000 0.000000
		CHANNELS 3 Zrotation Yrotation Xrotation
		JOINT RightUpLeg
		{
			OFFSET -1.305520 -1.794630 0.839290
			CHANNELS 3 Zrotation Yrotation Xrotation
			JOINT RightLeg
			{
				OFFSET -2.542530 -6.985550 0.000000
				CHANNELS 3 Zrotation Yrotation Xrotation
				JOINT RightFoot
				{
					OFFSET -2.568260 -7.056230 0.000000
					CHANNELS 3 Zrotation Yrotation Xrotation
					JOINT RightToeBase
					{
						OFFSET -0.164730 -0.452590 2.363150
						CHANNELS 3 Zrotation Yrotation Xrotation
						End Site
						{
							OFFSET 0.000000 0.000000 0.000000
						}
					}
				}
			}
		}
	}
}
MOTION
Frames: 22
Frame Time: 0.008333
-0.012924 16.528028 0.783030 30.148056 60.786070 39.905197 -10.383440 2.954399 -3.172780 -3.802175 15.785901 -19.953074 -0.225525 2.828115 51.478776 1.551269 2.694238 25.292639 0.599100 -0.000000 -62.056100 10.170020 1.437417 -0.209401 13.672675 -4.875081 -38.591619 1.315645 -0.667690 26.101954 -5.372818 -17.396605 -22.811237 -176.408400 0.000000 -25.576700
0.074575 16.528981 0.909777 28.514567 59.525645 38.673212 -10.330086 2.767591 -3.122880 -3.779659 14.918474 -21.388150 -0.070906 2.912606 53.787500 1.744985 5.180406 24.940060 1.809900 -0.000000 -57.857800 10.110628 1.344151 0.044255 13.914809 -3.259893 -37.822550 1.256167 -0.569931 25.867392 -5.476912 -17.613647 -23.409993 -176.146900 -0.000001 -26.203300
0.157806 16.534614 1.038273 27.009791 58.161519 37.615198 -10.248153 2.585935 -3.046409 -3.864032 13.875996 -22.824513 0.073999 2.987328 55.894896 1.941266 7.731511 24.280098 3.029600 0.000000 -54.111100 10.071976 1.266607 0.320964 14.084506 -1.614658 -36.942958 1.189180 -0.442678 25.318730 -5.567310 -17.828476 -23.802115 -175.956401 -0.000000 -26.582300
0.237269 16.545226 1.168043 25.626292 56.702606 36.714263 -10.143164 2.412668 -2.939004 -4.024427 12.674813 -24.242699 0.208074 3.048185 57.764569 2.136358 10.216810 23.377327 4.168900 0.000000 -50.899099 10.052541 1.200028 0.611312 14.192779 0.008655 -35.977569 1.124480 -0.292853 24.490250 -5.620406 -17.952579 -23.965229 -175.862500 0.000000 -26.778800
0.313519 16.560929 1.298499 24.344723 55.154485 35.944541 -10.020426 2.249549 -2.799855 -4.226045 11.338787 -25.622777 0.329214 3.092353 59.363689 2.324994 12.527624 22.299779 5.160600 -0.000000 -48.279600 10.050060 1.140014 0.903911 14.255245 1.564306 -34.949546 1.071774 -0.127245 23.422944 -5.616205 -17.907246 -23.894927 -175.882400 0.000000 -26.845100
0.387006 16.581641 1.429154 23.143596 53.520759 35.274939 -9.884690 2.098106 -2.629707 -4.434620 9.900205 -26.944711 0.435399 3.117895 60.666982 2.500375 14.577146 21.105714 5.959400 0.000000 -46.210400 10.062150 1.081766 1.189242 14.288732 3.015500 -33.875804 1.039614 0.047946 22.161781 -5.540432 -17.632330 -23.606502 -176.019100 0.000000 -26.861399
0.458138 16.607058 1.559592 22.002113 51.802069 34.675830 -9.739608 1.959042 -2.431089 -4.620871 8.394236 -28.189502 0.524766 3.123315 61.653347 2.656379 16.309345 19.860493 6.547900 0.000000 -44.766600 10.086883 1.021519 1.459005 14.308512 4.336000 -32.767915 1.034416 0.227105 20.753364 -5.385383 -17.091763 -23.128201 -176.261700 -0.000000 -26.903600
0.527269 16.636561 1.689538 20.901954 49.996090 34.121262 -9.588570 1.832855 -2.210492 -4.761851 6.865008 -29.345697 0.596012 3.109695 62.319888 2.785374 17.679963 18.586184 6.915600 -0.000000 -43.694800 10.122168 0.956499 1.707037 14.328659 5.512744 -31.632202 1.059917 0.405459 19.243048 -5.150594 -16.276055 -22.497400 -176.587300 0.000000 -27.036600
0.594654 16.669386 1.818910 19.833121 48.099011 33.592820 -9.433724 1.719465 -1.973806 -4.846245 5.352778 -30.405492 0.648541 3.077467 62.667911 2.883095 18.679402 17.324159 7.078500 -0.000000 -42.982300 10.167076 0.885286 1.930466 14.356396 6.542661 -30.470943 1.116451 0.579147 17.672830 -4.842064 -15.199504 -21.754190 -176.966600 0.000000 -27.310500
0.660502 16.704558 1.947751 18.792002 46.106398 33.080396 -9.276542 1.618413 -1.727819 -4.872998 3.896641 -31.368738 0.682463 3.027909 62.710926 2.947270 19.319969 16.103013 7.064700 0.000000 -42.567700 10.221386 0.807661 2.129322 14.393493 7.432016 -29.284235 1.201138 0.745459 16.078060 -4.471441 -13.896323 -20.936968 -177.369700 0.000000 -27.754200
0.724963 16.741014 2.076211 17.780094 44.014048 32.580886 -9.118442 1.528782 -1.479570 -4.849846 2.532717 -32.244988 0.698538 2.963425 62.476415 2.977337 19.628341 14.929902 6.904200 -0.000000 -42.257400 10.285163 0.724069 2.306163 14.436644 8.193554 -28.072061 1.308516 0.902656 14.487122 -4.054065 -12.413309 -20.078228 -177.771100 -0.000000 -28.371800
0.788131 16.777644 2.204527 16.805942 41.819139 32.097009 -8.960292 1.449360 -1.235173 -4.793592 1.290487 -33.048829 0.697944 2.886602 62.000068 2.975409 19.649252 13.803455 6.631200 0.000000 -41.838600 10.359877 0.635226 2.464417 14.476864 8.838146 -26.835113 1.431432 1.049338 12.922583 -3.606013 -10.799894 -19.200988 -178.152700 -0.000000 -29.124800
0.850178 16.813399 2.332965 15.877435 39.522884 31.635783 -8.802652 1.378430 -0.997661 -4.722407 0.187306 -33.801432 0.682211 2.799629 61.318298 2.946871 19.444720 12.737518 6.288400 -0.000000 -41.325300 10.446909 0.542032 2.608692 14.503825 9.376873 -25.578172 1.562313 1.185165 11.398964 -3.143261 -9.105173 -18.320495 -178.503300 -0.000000 -29.985000
0.911231 16.847374 2.461806 15.004258 37.130008 31.204769 -8.646198 1.314349 -0.768912 -4.654997 -0.766593 -34.526425 0.652851 2.705263 60.471318 2.897903 19.077448 11.726563 5.908600 -0.000000 -40.635500 10.547928 0.444957 2.742255 14.506976 9.813654 -24.308590 1.694351 1.309695 9.927316 -2.678826 -7.368891 -17.442707 -178.818200 0.000000 -30.900000
0.971417 16.878817 2.591160 14.194153 34.650807 30.809541 -8.491797 1.255478 -0.548862 -4.606584 -1.570550 -35.246018 0.611328 2.606095 59.496511 2.835556 18.609908 10.762866 5.519200 0.000000 -39.751301 10.664282 0.343860 2.865974 14.478314 10.143576 -23.037348 1.822645 1.421917 8.520034 -2.221757 -5.617097 -16.566731 -179.096700 -0.000000 -31.795900
1.030924 16.907252 2.721215 13.450471 32.101004 30.454207 -8.340513 1.200445 -0.334990 -4.584252 -2.233590 -35.981226 0.558805 2.504357 58.421728 2.766903 18.097818 9.843008 5.142199 -0.000000 -38.759200 10.795569 0.238671 2.980473 14.413799 10.362073 -21.777319 1.943774 1.521848 7.183391 -1.779579 -3.871729 -15.689924 -179.339000 -0.000000 -32.650599
1.089936 16.932359 2.851961 12.773265 29.502446 30.138212 -8.193777 1.147801 -0.124271 -4.587830 -2.771122 -36.746468 0.496214 2.401989 57.267349 2.698060 17.585335 8.958433 4.790600 0.000000 -37.736900 10.939853 0.129024 3.083625 14.315210 10.460534 -20.542849 2.056478 1.608791 5.929018 -1.357128 -2.145116 -14.809772 -179.546000 -0.000000 -33.425600
1.148608 16.953972 2.983321 12.158754 26.881510 29.858886 -8.053134 1.096202 0.086873 -4.609149 -3.203834 -37.549524 0.424112 2.300287 56.041502 2.633804 17.103153 8.103284 4.471201 0.000000 -36.783200 11.093129 0.014971 3.172574 14.189221 10.434326 -19.348105 2.160723 1.682540 4.768821 -0.958916 -0.449402 -13.929156 -179.717600 -0.000001 -34.113500
1.207172 16.972202 3.115238 11.599340 24.268726 29.611164 -7.920472 1.044232 0.301728 -4.632332 -3.555239 -38.389472 0.342786 2.199844 54.740009 2.577269 16.667913 7.275458 4.186300 0.000000 -35.993500 11.248617 -0.102918 3.245964 14.046503 10.293842 -18.199878 2.256311 1.744277 3.705933 -0.591177 1.190381 -13.055482 -179.853300 0.000000 -34.734001
1.265791 16.987042 3.247544 11.088503 21.694959 29.389408 -7.796716 0.990863 0.523398 -4.641713 -3.851645 -39.258209 0.252414 2.100177 53.349913 2.530055 16.285157 6.475599 3.935000 -0.000001 -35.427500 11.400483 -0.223459 3.297701 13.901470 10.035662 -17.114033 2.345320 1.793154 2.768998 -0.257257 2.764280 -12.213836 -179.953900 -0.000000 -35.312599
1.324650 16.998771 3.380279 10.614884 19.192333 29.188166 -7.683627 0.934545 0.753442 -4.613164 -4.116412 -40.140906 0.153061 2.000199 51.846748 2.491863 15.947478 5.713372 3.715100 0.000000 -35.147400 11.538525 -0.344840 3.331084 13.768344 9.704039 -16.079911 2.425722 1.833337 1.939360 0.033322 4.212961 -11.421887 179.979201 0.000000 -35.909099
1.383868 17.007387 3.513370 10.172637 16.788636 29.002488 -7.581101 0.875016 0.993653 -4.532198 -4.373896 -41.017944 0.044899 1.897634 50.203724 2.461179 15.642196 4.999020 3.523800 0.000000 -35.141100 11.657258 -0.465047 3.341050 13.662052 9.306412 -15.103515 2.499107 1.865008 1.241003 0.277930 5.512866 -10.719421 179.940300 -0.000000 -36.570800
